# xmcd
#
# Track frame offsets: 
#        150
#        18397
#        34078
#        49642
#        63378
#        75388
#        93338
#        110355
#        123086
#        142369
#
# Disc length: 2129 seconds
#
# Revision: 0
# Processed by: cddbd v1.5.2PL0 Copyright (c) Steve Scherf et al.
# Submitted via: ExactAudioCopy v0.99pb5
#
DISCID=7c084f0a
DTITLE=ชรัส วันนี้ - ชรัส เฟื่องอารมณ์
DYEAR=1900
DGENRE=Vocal
TTITLE0=ทั้งรู้ก็รัก
TTITLE1=อยู่ที่ใจ
TTITLE2=ตัดใจลา
TTITLE3=นานเท่าใด
TTITLE4=แม่ดอกกระถิน
TTITLE5=คนหลายใจ
TTITLE6=ดอกราตรี
TTITLE7=สมดั่งใจ
TTITLE8=ความรัก
TTITLE9=เพลิงชมพู
EXTD=
EXTT0=
EXTT1=
EXTT2=
EXTT3=
EXTT4=
EXTT5=
EXTT6=
EXTT7=
EXTT8=
EXTT9=
PLAYORDER=
